<svg width="613" height="613" viewBox="0 0 613 613" fill="none" xmlns="http://www.w3.org/2000/svg">
<mask id="path-1-inside-1_0_1612" fill="white">
<path d="M612.911 306.988C612.911 475.987 475.91 612.988 306.911 612.988C137.911 612.988 0.910522 475.987 0.910522 306.988C0.910522 137.988 137.911 0.987549 306.911 0.987549C475.91 0.987549 612.911 137.988 612.911 306.988ZM10.1205 306.988C10.1205 470.9 142.998 603.778 306.911 603.778C470.823 603.778 603.701 470.9 603.701 306.988C603.701 143.075 470.823 10.1975 306.911 10.1975C142.998 10.1975 10.1205 143.075 10.1205 306.988Z"/>
</mask>
<path d="M612.911 306.988C612.911 475.987 475.91 612.988 306.911 612.988C137.911 612.988 0.910522 475.987 0.910522 306.988C0.910522 137.988 137.911 0.987549 306.911 0.987549C475.91 0.987549 612.911 137.988 612.911 306.988ZM10.1205 306.988C10.1205 470.9 142.998 603.778 306.911 603.778C470.823 603.778 603.701 470.9 603.701 306.988C603.701 143.075 470.823 10.1975 306.911 10.1975C142.998 10.1975 10.1205 143.075 10.1205 306.988Z" stroke="#DF6951" stroke-width="2" stroke-dasharray="86 86" mask="url(#path-1-inside-1_0_1612)"/>
</svg>
